<?xml version="1.0" encoding="utf-8"?>
<!-- Generator: Adobe Illustrator 14.0.0, SVG Export Plug-In . SVG Version: 6.00 Build 43363)  -->
<!DOCTYPE svg PUBLIC "-//W3C//DTD SVG 1.1//EN" "http://www.w3.org/Graphics/SVG/1.1/DTD/svg11.dtd">
<svg version="1.1" id="Layer_1" xmlns="http://www.w3.org/2000/svg" xmlns:xlink="http://www.w3.org/1999/xlink" x="0px" y="0px"
   width="192.756px" height="101px" viewBox="0 0 192.756 101" enable-background="new 0 0 192.756 101" xml:space="preserve">
<g>
  <path fill="#00427A" d="M79.934,85.351h-2.259v4.42h-2.292V78.028h4.551c2.425,0,3.876,1.668,3.876,3.66
    C83.81,83.688,82.359,85.351,79.934,85.351L79.934,85.351L79.934,85.351z M79.818,80.074h-2.143v3.217h2.143
    c1.042,0,1.698-0.643,1.698-1.603C81.516,80.735,80.859,80.074,79.818,80.074L79.818,80.074z"/>
  <path fill="#00427A" d="M96.539,89.771l-0.692-2.075h-4.174l-0.708,2.075h-2.392l4.272-11.742h1.796l4.291,11.742H96.539
    L96.539,89.771L96.539,89.771z M93.802,81.493l-1.485,4.268h2.919L93.802,81.493L93.802,81.493z"/>
  <path fill="#00427A" d="M111.562,89.771l-2.293-4.683h-1.65v4.683h-2.292V78.028h4.6c2.392,0,3.812,1.637,3.812,3.597
    c0,1.647-1.007,2.671-2.145,3.083l2.621,5.062H111.562L111.562,89.771L111.562,89.771z M109.781,80.074h-2.162v3.101h2.162
    c1.005,0,1.664-0.643,1.664-1.55C111.445,80.719,110.786,80.074,109.781,80.074L109.781,80.074z"/>
  <polygon fill="#00427A" points="121.061,78.028 123.354,78.028 123.354,89.771 121.061,89.771 121.061,78.028  "/>
  <path fill="#00427A" d="M134.272,89.871c-1.785,0-3.138-0.38-4.291-1.551l1.483-1.483c0.742,0.743,1.747,0.988,2.839,0.988
    c1.353,0,2.076-0.509,2.076-1.451c0-0.414-0.115-0.757-0.361-0.991c-0.23-0.214-0.497-0.328-1.039-0.409l-1.421-0.199
    c-1.007-0.149-1.747-0.462-2.274-0.972c-0.559-0.562-0.843-1.317-0.843-2.31c0-2.097,1.553-3.562,4.092-3.562
    c1.618,0,2.788,0.398,3.791,1.371l-1.449,1.434c-0.74-0.707-1.632-0.809-2.406-0.809c-1.223,0-1.816,0.678-1.816,1.483
    c0,0.3,0.099,0.608,0.346,0.842c0.232,0.218,0.609,0.396,1.089,0.461l1.384,0.199c1.075,0.147,1.752,0.441,2.245,0.906
    c0.627,0.593,0.907,1.452,0.907,2.489C138.623,88.582,136.728,89.871,134.272,89.871L134.272,89.871z"/>
  <path fill="#00427A" d="M93.44,11.879c1.114,0.826,1.705,2.022,1.705,3.5v49.294c0,1.834-0.822,2.835-1.806,3.498
    c1.798,0,31.997,0,32.413,0c0.069-0.339,1.09-5.457,1.455-7.324c-2.912,4.129-6.273,4.171-14.213,4.241h-0.562
    c-4.189,0-8.338-0.373-9.718-0.488l-0.235-0.034V38.35h13.878c0.979,0,2.022,0.812,2.655,1.66c0-1.268,0-4.962,0-6.243
    c-0.633,0.861-1.677,1.666-2.655,1.666h-13.878V14.788h0.259c0.136,0,12.799,0.17,14.362,0.17c3.461,0,5.244,0.946,6.749,2.51
    c-0.021-1.052-0.13-5.172-0.143-5.589C123.224,11.879,95.115,11.879,93.44,11.879L93.44,11.879z"/>
  <path fill="#00427A" d="M139.879,20.378c-5.082,5.271-7.978,12.486-7.978,19.815c0,8.144,3.292,15.552,9.255,20.853
    c5.715,5.077,13.378,7.874,21.566,7.874c4.29,0,12.688-0.722,20.799-5.582c0.274-3.41,0.61-8.142,0.73-10.246
    c-6.564,12.658-16.65,12.675-20.027,12.675c-16.792,0-24.315-13.391-24.315-26.646c0-6.958,2.188-13.216,6.154-17.619
    c4.344-4.836,10.648-7.378,18.236-7.378c4.112,0,14.03,1.296,19.534,12.712c-0.109-2.236-0.463-7.328-0.724-11.027
    c-7.449-3.234-13.471-4.681-19.478-4.681C153.922,11.129,145.698,14.33,139.879,20.378L139.879,20.378z"/>
  <path fill="#00427A" d="M65.608,15.379v17.006c2.607,0.28,5.103,0.627,7.503,1.045V15.379c0-1.581,0.506-2.726,1.527-3.5H64.057
    C65.081,12.676,65.608,13.852,65.608,15.379L65.608,15.379L65.608,15.379z M84.861,44.453l0.069-6.156
    c-8.6-2.852-20.12-4.579-32.834-4.599c-5.634,0-11.039,0.343-16.07,0.972V15.379c0-1.478,0.549-2.681,1.589-3.5H26.969
    c1.02,0.797,1.553,1.973,1.553,3.5v20.482c-8.616,1.691-15.628,4.285-20.018,7.426l0.689,1.012
    c4.479-2.62,11.217-4.595,19.328-5.696v26.07c0,1.476-0.549,2.644-1.606,3.498h10.732c-1.071-0.877-1.622-2.06-1.622-3.498V37.85
    c5.096-0.315,10.563-0.326,16.247,0.019c4.634,0.289,9.109,0.807,13.335,1.499v25.305c0,1.476-0.54,2.644-1.6,3.498h10.676
    c-1.039-0.823-1.573-1.967-1.573-3.498v-23.81C77.442,41.878,81.409,43.078,84.861,44.453L84.861,44.453z"/>
</g>
</svg>
